<svg xmlns="http://www.w3.org/2000/svg" xmlns:xlink="http://www.w3.org/1999/xlink" width="500" zoomAndPan="magnify" viewBox="0 0 375 374.999991" height="500" preserveAspectRatio="xMidYMid meet" version="1.0"><defs><g/><clipPath id="14d29b84df"><path d="M 160 121 L 274 121 L 274 208.988281 L 160 208.988281 Z M 160 121 " clip-rule="nonzero"/></clipPath><clipPath id="20c7464f22"><path d="M 101 91.238281 L 215 91.238281 L 215 179 L 101 179 Z M 101 91.238281 " clip-rule="nonzero"/></clipPath></defs><g clip-path="url(#14d29b84df)"><path fill="#5ce1e6" d="M 180.625 125.242188 L 180.625 121.980469 L 253.90625 121.980469 C 259.40625 121.980469 264.421875 124.226562 268.027344 127.828125 C 271.636719 131.433594 273.878906 136.449219 273.875 141.949219 L 273.875 172.453125 C 273.875 177.074219 272.289062 181.359375 269.640625 184.742188 C 266.996094 188.125 263.28125 190.636719 258.996094 191.761719 L 258.167969 188.609375 L 260.992188 190.238281 L 252.117188 205.597656 C 251.441406 206.769531 250.464844 207.707031 249.367188 208.316406 C 248.265625 208.929688 247.054688 209.222656 245.847656 209.222656 C 244.640625 209.222656 243.421875 208.921875 242.328125 208.316406 C 241.226562 207.707031 240.246094 206.777344 239.574219 205.597656 L 231.96875 192.414062 L 180.625 192.414062 C 175.121094 192.414062 170.109375 190.171875 166.503906 186.566406 C 162.890625 182.960938 160.65625 177.949219 160.65625 172.445312 L 160.65625 141.957031 C 160.65625 136.453125 162.898438 131.441406 166.503906 127.835938 C 170.109375 124.226562 175.121094 121.980469 180.625 121.988281 L 180.625 128.5 C 176.902344 128.5 173.558594 130 171.113281 132.4375 C 168.675781 134.882812 167.175781 138.226562 167.175781 141.949219 L 167.175781 172.453125 C 167.175781 176.175781 168.675781 179.519531 171.113281 181.964844 C 173.558594 184.402344 176.902344 185.902344 180.625 185.902344 L 235.730469 185.902344 L 245.222656 202.355469 C 245.3125 202.507812 245.390625 202.570312 245.488281 202.628906 C 245.585938 202.683594 245.71875 202.722656 245.855469 202.722656 C 245.992188 202.722656 246.113281 202.6875 246.21875 202.628906 C 246.316406 202.570312 246.394531 202.507812 246.484375 202.355469 L 256.035156 185.816406 L 257.355469 185.472656 C 260.230469 184.714844 262.738281 183.027344 264.523438 180.738281 C 266.3125 178.449219 267.367188 175.59375 267.375 172.464844 L 267.375 141.957031 C 267.375 138.234375 265.875 134.890625 263.4375 132.445312 C 260.992188 130.007812 257.648438 128.507812 253.925781 128.507812 L 180.636719 128.507812 L 180.636719 125.242188 " fill-opacity="1" fill-rule="nonzero"/></g><g clip-path="url(#20c7464f22)"><path fill="#ffffff" d="M 121.007812 91.230469 C 121.007812 91.230469 121.011719 91.230469 121.011719 91.230469 L 194.300781 91.230469 C 199.804688 91.230469 204.824219 93.472656 208.421875 97.078125 C 212.03125 100.683594 214.273438 105.699219 214.269531 111.199219 L 214.269531 121.980469 L 207.75 121.980469 L 207.75 111.199219 C 207.75 107.476562 206.25 104.132812 203.8125 101.6875 C 201.367188 99.25 198.023438 97.75 194.300781 97.75 L 121.011719 97.75 C 117.289062 97.75 113.945312 99.25 111.5 101.6875 C 109.0625 104.132812 107.5625 107.476562 107.5625 111.199219 L 107.5625 141.710938 C 107.5625 144.839844 108.625 147.695312 110.414062 149.980469 C 112.199219 152.269531 114.707031 153.957031 117.582031 154.714844 L 118.894531 155.058594 L 128.445312 171.597656 C 128.535156 171.75 128.613281 171.816406 128.710938 171.875 C 128.808594 171.925781 128.941406 171.964844 129.078125 171.964844 C 129.214844 171.964844 129.34375 171.933594 129.441406 171.875 C 129.539062 171.816406 129.617188 171.75 129.710938 171.597656 L 139.199219 155.15625 L 160.65625 155.15625 L 160.65625 161.675781 L 142.96875 161.675781 L 135.363281 174.859375 C 134.683594 176.03125 133.707031 176.972656 132.609375 177.578125 C 131.507812 178.183594 130.296875 178.484375 129.089844 178.484375 C 127.882812 178.484375 126.671875 178.183594 125.570312 177.578125 C 124.46875 176.972656 123.488281 176.039062 122.820312 174.859375 L 114.589844 160.613281 C 110.875 159.351562 107.65625 157.023438 105.296875 153.996094 C 102.648438 150.613281 101.0625 146.332031 101.0625 141.710938 L 101.0625 111.199219 C 101.0625 105.699219 103.308594 100.683594 106.910156 97.078125 C 110.496094 93.472656 115.511719 91.230469 121.007812 91.230469 " fill-opacity="1" fill-rule="nonzero"/></g><path fill="#5ce1e6" d="M 160.648438 155.164062 L 163.910156 155.164062 C 165.707031 155.164062 167.167969 156.625 167.167969 158.425781 C 167.167969 160.222656 165.707031 161.683594 163.910156 161.683594 L 160.648438 161.683594 L 160.648438 155.164062 M 207.757812 121.988281 L 214.273438 121.988281 L 214.273438 125.25 C 214.273438 127.046875 212.816406 128.507812 211.015625 128.507812 C 209.214844 128.507812 207.757812 127.046875 207.757812 125.25 L 207.757812 121.988281 " fill-opacity="1" fill-rule="nonzero"/><g fill="#f4f6fc" fill-opacity="1"><g transform="translate(56.76668, 253.900164)"><g><path d="M 19.382812 0.726562 C 28.710938 0.726562 35.769531 -4.929688 37.21875 -13.535156 L 27.3125 -13.535156 C 26.101562 -10.34375 23.25 -8.3125 19.578125 -8.3125 C 14.839844 -8.3125 11.550781 -11.84375 11.550781 -16.917969 C 11.550781 -22.042969 14.886719 -25.523438 19.671875 -25.523438 C 23.203125 -25.523438 26.152344 -23.539062 27.164062 -20.496094 L 37.027344 -20.496094 C 35.285156 -29.050781 28.324219 -34.5625 19.285156 -34.5625 C 8.847656 -34.5625 1.644531 -27.359375 1.644531 -16.917969 C 1.644531 -6.476562 8.847656 0.726562 19.382812 0.726562 Z M 19.382812 0.726562 "/></g></g></g><g fill="#f4f6fc" fill-opacity="1"><g transform="translate(94.317183, 253.900164)"><g><path d="M 3.238281 0 L 12.519531 0 L 12.519531 -13.777344 C 12.519531 -16.871094 14.113281 -18.609375 16.675781 -18.609375 C 19.140625 -18.609375 20.589844 -17.015625 20.589844 -14.019531 L 20.589844 0 L 29.871094 0 L 29.871094 -14.984375 C 29.871094 -21.945312 25.859375 -26.296875 19.382812 -26.296875 C 16.726562 -26.296875 14.308594 -25.523438 12.519531 -24.121094 L 12.519531 -35.769531 L 3.238281 -35.769531 Z M 3.238281 0 "/></g></g></g><g fill="#f4f6fc" fill-opacity="1"><g transform="translate(125.730026, 253.900164)"><g><path d="M 11.746094 0.578125 C 15.417969 0.578125 18.511719 -0.628906 20.6875 -2.804688 L 21.703125 0 L 28.375 0 L 28.375 -14.886719 C 28.375 -22.1875 23.78125 -26.296875 15.566406 -26.296875 C 8.410156 -26.296875 4.109375 -23.058594 3.335938 -17.160156 L 12.035156 -17.160156 C 12.277344 -18.660156 13.726562 -19.671875 15.613281 -19.671875 C 17.691406 -19.671875 19.335938 -18.464844 19.335938 -16.773438 L 19.335938 -15.324219 L 10.730469 -15.324219 C 5.460938 -15.324219 2.078125 -12.179688 2.078125 -7.492188 C 2.078125 -2.511719 5.847656 0.578125 11.746094 0.578125 Z M 11.164062 -7.925781 C 11.164062 -9.378906 12.421875 -10.246094 14.40625 -10.246094 L 19.433594 -10.246094 C 19.433594 -7.445312 17.304688 -5.558594 14.5 -5.558594 C 12.519531 -5.558594 11.164062 -6.476562 11.164062 -7.925781 Z M 11.164062 -7.925781 "/></g></g></g><g fill="#f4f6fc" fill-opacity="1"><g transform="translate(155.644702, 253.900164)"><g><path d="M 16.242188 0 L 21.414062 0 L 21.414062 -7.832031 L 18.753906 -7.832031 C 16.046875 -7.832031 14.792969 -9.039062 14.792969 -11.699219 L 14.792969 -18.273438 L 21.074219 -18.273438 L 21.074219 -25.570312 L 14.792969 -25.570312 L 14.792969 -32.289062 L 7.589844 -32.289062 L 7.105469 -28.953125 C 6.71875 -26.296875 5.992188 -25.570312 3.09375 -25.570312 L 0.773438 -25.570312 L 0.773438 -18.273438 L 5.511719 -18.273438 L 5.511719 -9.910156 C 5.511719 -3.433594 9.234375 0 16.242188 0 Z M 16.242188 0 "/></g></g></g><g fill="#f4f6fc" fill-opacity="1"><g transform="translate(177.73023, 253.900164)"><g><path d="M 3.238281 0 L 12.519531 0 L 12.519531 -25.570312 L 3.238281 -25.570312 Z M 2.320312 -34.320312 C 2.320312 -31.128906 4.640625 -28.90625 7.878906 -28.90625 C 11.117188 -28.90625 13.4375 -31.128906 13.4375 -34.320312 C 13.4375 -37.511719 11.117188 -39.683594 7.878906 -39.683594 C 4.640625 -39.683594 2.320312 -37.511719 2.320312 -34.320312 Z M 2.320312 -34.320312 "/></g></g></g><g fill="#f4f6fc" fill-opacity="1"><g transform="translate(192.276586, 253.900164)"><g><path d="M 10.539062 0 L 19.964844 0 L 30.308594 -25.570312 L 20.203125 -25.570312 L 17.449219 -17.113281 L 15.273438 -10.539062 L 13.097656 -17.113281 L 10.390625 -25.570312 L 0.242188 -25.570312 Z M 10.539062 0 "/></g></g></g><g fill="#f4f6fc" fill-opacity="1"><g transform="translate(221.611316, 253.900164)"><g><path d="M 11.746094 0.578125 C 15.417969 0.578125 18.511719 -0.628906 20.6875 -2.804688 L 21.703125 0 L 28.375 0 L 28.375 -14.886719 C 28.375 -22.1875 23.78125 -26.296875 15.566406 -26.296875 C 8.410156 -26.296875 4.109375 -23.058594 3.335938 -17.160156 L 12.035156 -17.160156 C 12.277344 -18.660156 13.726562 -19.671875 15.613281 -19.671875 C 17.691406 -19.671875 19.335938 -18.464844 19.335938 -16.773438 L 19.335938 -15.324219 L 10.730469 -15.324219 C 5.460938 -15.324219 2.078125 -12.179688 2.078125 -7.492188 C 2.078125 -2.511719 5.847656 0.578125 11.746094 0.578125 Z M 11.164062 -7.925781 C 11.164062 -9.378906 12.421875 -10.246094 14.40625 -10.246094 L 19.433594 -10.246094 C 19.433594 -7.445312 17.304688 -5.558594 14.5 -5.558594 C 12.519531 -5.558594 11.164062 -6.476562 11.164062 -7.925781 Z M 11.164062 -7.925781 "/></g></g></g><g fill="#f4f6fc" fill-opacity="1"><g transform="translate(251.525998, 253.900164)"><g><path d="M 16.242188 0 L 21.414062 0 L 21.414062 -7.832031 L 18.753906 -7.832031 C 16.046875 -7.832031 14.792969 -9.039062 14.792969 -11.699219 L 14.792969 -18.273438 L 21.074219 -18.273438 L 21.074219 -25.570312 L 14.792969 -25.570312 L 14.792969 -32.289062 L 7.589844 -32.289062 L 7.105469 -28.953125 C 6.71875 -26.296875 5.992188 -25.570312 3.09375 -25.570312 L 0.773438 -25.570312 L 0.773438 -18.273438 L 5.511719 -18.273438 L 5.511719 -9.910156 C 5.511719 -3.433594 9.234375 0 16.242188 0 Z M 16.242188 0 "/></g></g></g><g fill="#f4f6fc" fill-opacity="1"><g transform="translate(273.611538, 253.900164)"><g><path d="M 15.953125 0.726562 C 22.574219 0.726562 27.648438 -2.5625 29.921875 -8.265625 L 20.929688 -8.265625 C 19.914062 -7.058594 18.125 -6.285156 16.144531 -6.285156 C 13.535156 -6.285156 11.359375 -7.6875 10.683594 -10.488281 L 30.402344 -10.488281 C 30.886719 -20.011719 25.136719 -26.296875 16 -26.296875 C 7.445312 -26.296875 1.5 -20.785156 1.5 -12.808594 C 1.5 -4.785156 7.394531 0.726562 15.953125 0.726562 Z M 10.730469 -15.515625 C 11.503906 -17.980469 13.535156 -19.335938 16.097656 -19.335938 C 18.898438 -19.335938 20.785156 -17.886719 21.558594 -15.515625 Z M 10.730469 -15.515625 "/></g></g></g><g fill="#f4f6fc" fill-opacity="1"><g transform="translate(115.158045, 286.117013)"><g><path d="M 0.25 0 L 0.988281 0 L 1.804688 -1.996094 L 5.929688 -1.996094 L 6.757812 0 L 7.484375 0 L 4.195312 -7.9375 L 3.539062 -7.9375 Z M 2.074219 -2.632812 L 3.867188 -6.996094 L 5.671875 -2.632812 Z M 2.074219 -2.632812 "/></g></g></g><g fill="#f4f6fc" fill-opacity="1"><g transform="translate(127.888509, 286.117013)"><g><path d="M 1.28125 0 L 1.972656 0 L 1.972656 -7.9375 L 1.28125 -7.9375 Z M 1.28125 0 "/></g></g></g><g fill="#f4f6fc" fill-opacity="1"><g transform="translate(136.131505, 286.117013)"><g/></g></g><g fill="#f4f6fc" fill-opacity="1"><g transform="translate(144.159191, 286.117013)"><g><path d="M 3.832031 0.148438 C 5.554688 0.148438 6.644531 -0.691406 6.644531 -2.019531 C 6.644531 -3.152344 5.875 -3.855469 3.867188 -4.320312 C 2.199219 -4.695312 1.609375 -5.183594 1.609375 -5.976562 C 1.609375 -6.847656 2.359375 -7.425781 3.640625 -7.425781 C 4.96875 -7.425781 5.773438 -6.792969 5.828125 -5.671875 L 6.507812 -5.671875 C 6.453125 -7.199219 5.386719 -8.085938 3.640625 -8.085938 C 1.949219 -8.085938 0.917969 -7.246094 0.917969 -5.976562 C 0.917969 -4.785156 1.746094 -4.128906 3.695312 -3.675781 C 5.296875 -3.324219 5.941406 -2.835938 5.941406 -2.007812 C 5.941406 -1.089844 5.136719 -0.511719 3.832031 -0.511719 C 2.460938 -0.511719 1.542969 -1.191406 1.472656 -2.359375 L 0.792969 -2.359375 C 0.851562 -0.828125 2.019531 0.148438 3.832031 0.148438 Z M 3.832031 0.148438 "/></g></g></g><g fill="#f4f6fc" fill-opacity="1"><g transform="translate(156.595016, 286.117013)"><g><path d="M 4.820312 0.148438 C 7.246094 0.148438 8.914062 -1.542969 8.914062 -3.96875 C 8.914062 -6.394531 7.246094 -8.085938 4.820312 -8.085938 C 2.402344 -8.085938 0.726562 -6.394531 0.726562 -3.96875 C 0.726562 -1.542969 2.402344 0.148438 4.820312 0.148438 Z M 1.429688 -3.96875 C 1.429688 -6.011719 2.8125 -7.394531 4.820312 -7.394531 C 6.839844 -7.394531 8.222656 -6.011719 8.222656 -3.96875 C 8.222656 -1.9375 6.839844 -0.542969 4.820312 -0.542969 C 2.8125 -0.542969 1.429688 -1.9375 1.429688 -3.96875 Z M 1.429688 -3.96875 "/></g></g></g><g fill="#f4f6fc" fill-opacity="1"><g transform="translate(171.217921, 286.117013)"><g><path d="M 1.28125 0 L 6 0 L 6 -0.65625 L 1.972656 -0.65625 L 1.972656 -7.9375 L 1.28125 -7.9375 Z M 1.28125 0 "/></g></g></g><g fill="#f4f6fc" fill-opacity="1"><g transform="translate(182.588541, 286.117013)"><g><path d="M 4.171875 0.136719 C 6.03125 0.136719 7.167969 -1.089844 7.167969 -3.128906 L 7.167969 -7.9375 L 6.488281 -7.9375 L 6.488281 -3.164062 C 6.488281 -1.472656 5.648438 -0.53125 4.171875 -0.53125 C 2.699219 -0.53125 1.859375 -1.472656 1.859375 -3.164062 L 1.859375 -7.9375 L 1.179688 -7.9375 L 1.179688 -3.128906 C 1.179688 -1.089844 2.3125 0.136719 4.171875 0.136719 Z M 4.171875 0.136719 "/></g></g></g><g fill="#f4f6fc" fill-opacity="1"><g transform="translate(195.919602, 286.117013)"><g><path d="M 3.164062 0 L 3.84375 0 L 3.84375 -7.28125 L 6.589844 -7.28125 L 6.589844 -7.9375 L 0.429688 -7.9375 L 0.429688 -7.28125 L 3.164062 -7.28125 Z M 3.164062 0 "/></g></g></g><g fill="#f4f6fc" fill-opacity="1"><g transform="translate(207.92482, 286.117013)"><g><path d="M 1.28125 0 L 1.972656 0 L 1.972656 -7.9375 L 1.28125 -7.9375 Z M 1.28125 0 "/></g></g></g><g fill="#f4f6fc" fill-opacity="1"><g transform="translate(216.167816, 286.117013)"><g><path d="M 4.820312 0.148438 C 7.246094 0.148438 8.914062 -1.542969 8.914062 -3.96875 C 8.914062 -6.394531 7.246094 -8.085938 4.820312 -8.085938 C 2.402344 -8.085938 0.726562 -6.394531 0.726562 -3.96875 C 0.726562 -1.542969 2.402344 0.148438 4.820312 0.148438 Z M 1.429688 -3.96875 C 1.429688 -6.011719 2.8125 -7.394531 4.820312 -7.394531 C 6.839844 -7.394531 8.222656 -6.011719 8.222656 -3.96875 C 8.222656 -1.9375 6.839844 -0.542969 4.820312 -0.542969 C 2.8125 -0.542969 1.429688 -1.9375 1.429688 -3.96875 Z M 1.429688 -3.96875 "/></g></g></g><g fill="#f4f6fc" fill-opacity="1"><g transform="translate(230.790721, 286.117013)"><g><path d="M 1.28125 0 L 1.960938 0 L 1.960938 -6.757812 L 6.792969 0 L 7.4375 0 L 7.4375 -7.9375 L 6.757812 -7.9375 L 6.757812 -1.191406 L 1.929688 -7.9375 L 1.28125 -7.9375 Z M 1.28125 0 "/></g></g></g><g fill="#f4f6fc" fill-opacity="1"><g transform="translate(244.495729, 286.117013)"><g><path d="M 3.832031 0.148438 C 5.554688 0.148438 6.644531 -0.691406 6.644531 -2.019531 C 6.644531 -3.152344 5.875 -3.855469 3.867188 -4.320312 C 2.199219 -4.695312 1.609375 -5.183594 1.609375 -5.976562 C 1.609375 -6.847656 2.359375 -7.425781 3.640625 -7.425781 C 4.96875 -7.425781 5.773438 -6.792969 5.828125 -5.671875 L 6.507812 -5.671875 C 6.453125 -7.199219 5.386719 -8.085938 3.640625 -8.085938 C 1.949219 -8.085938 0.917969 -7.246094 0.917969 -5.976562 C 0.917969 -4.785156 1.746094 -4.128906 3.695312 -3.675781 C 5.296875 -3.324219 5.941406 -2.835938 5.941406 -2.007812 C 5.941406 -1.089844 5.136719 -0.511719 3.832031 -0.511719 C 2.460938 -0.511719 1.542969 -1.191406 1.472656 -2.359375 L 0.792969 -2.359375 C 0.851562 -0.828125 2.019531 0.148438 3.832031 0.148438 Z M 3.832031 0.148438 "/></g></g></g></svg>