<svg xmlns="http://www.w3.org/2000/svg" xmlns:xlink="http://www.w3.org/1999/xlink" width="500" zoomAndPan="magnify" viewBox="0 0 375 374.999991" height="500" preserveAspectRatio="xMidYMid meet" version="1.0"><defs><g/><clipPath id="35299bec31"><path d="M 169 22.882812 L 206 22.882812 L 206 59 L 169 59 Z M 169 22.882812 " clip-rule="nonzero"/></clipPath><clipPath id="416279872b"><path d="M 164 280 L 223 280 L 223 327.382812 L 164 327.382812 Z M 164 280 " clip-rule="nonzero"/></clipPath></defs><path fill="#ffffff" d="M 240.234375 192.804688 C 233.761719 192.804688 228.515625 187.558594 228.515625 181.085938 C 228.515625 174.617188 233.761719 169.367188 240.234375 169.367188 C 246.707031 169.367188 251.953125 174.617188 251.953125 181.085938 C 251.953125 187.558594 246.707031 192.804688 240.234375 192.804688 Z M 187.5 230.828125 C 171.320312 230.828125 158.203125 220.335938 158.203125 207.390625 L 216.796875 207.390625 C 216.796875 220.335938 203.679688 230.828125 187.5 230.828125 Z M 134.765625 192.804688 C 128.292969 192.804688 123.046875 187.558594 123.046875 181.085938 C 123.046875 174.617188 128.292969 169.367188 134.765625 169.367188 C 141.238281 169.367188 146.484375 174.617188 146.484375 181.085938 C 146.484375 187.558594 141.238281 192.804688 134.765625 192.804688 Z M 234.375 122.492188 L 140.625 122.492188 C 121.210938 122.492188 103.632812 130.363281 90.90625 143.085938 C 78.183594 155.8125 70.3125 173.390625 70.3125 192.804688 C 70.3125 231.640625 101.792969 263.117188 140.625 263.117188 L 234.375 263.117188 C 253.789062 263.117188 271.367188 255.246094 284.09375 242.523438 C 296.816406 229.800781 304.6875 212.222656 304.6875 192.804688 C 304.6875 153.972656 273.207031 122.492188 234.375 122.492188 " fill-opacity="1" fill-rule="nonzero"/><path fill="#ffffff" d="M 187.5 309.992188 L 152.34375 309.992188 C 136.527344 309.992188 121.179688 306.894531 106.726562 300.78125 C 92.773438 294.878906 80.238281 286.429688 69.480469 275.667969 C 58.71875 264.910156 50.269531 252.375 44.367188 238.421875 C 38.253906 223.972656 35.15625 208.621094 35.15625 192.804688 C 35.15625 176.988281 38.253906 161.640625 44.367188 147.1875 C 50.269531 133.234375 58.71875 120.699219 69.480469 109.941406 C 80.238281 99.179688 92.773438 90.730469 106.726562 84.828125 C 121.179688 78.714844 136.527344 75.617188 152.34375 75.617188 L 222.65625 75.617188 C 238.472656 75.617188 253.820312 78.714844 268.273438 84.828125 C 282.226562 90.730469 294.757812 99.179688 305.519531 109.941406 C 316.28125 120.699219 324.730469 133.234375 330.632812 147.1875 C 336.746094 161.640625 339.84375 176.988281 339.84375 192.804688 L 328.125 192.804688 C 328.125 134.648438 280.8125 87.335938 222.65625 87.335938 L 152.34375 87.335938 C 94.1875 87.335938 46.875 134.648438 46.875 192.804688 C 46.875 250.960938 94.1875 298.273438 152.34375 298.273438 L 187.5 298.273438 L 187.5 309.992188 " fill-opacity="1" fill-rule="nonzero"/><path fill="#ffffff" d="M 46.875 239.679688 C 20.988281 239.679688 0 218.695312 0 192.804688 C 0 166.917969 20.988281 145.929688 46.875 145.929688 L 46.875 239.679688 " fill-opacity="1" fill-rule="nonzero"/><path fill="#ffffff" d="M 328.125 239.679688 C 354.015625 239.679688 375 218.695312 375 192.804688 C 375 166.917969 354.015625 145.929688 328.125 145.929688 L 328.125 239.679688 " fill-opacity="1" fill-rule="nonzero"/><path fill="#ffffff" d="M 216.796875 128.351562 C 216.796875 141.296875 203.679688 151.789062 187.5 151.789062 C 171.320312 151.789062 158.203125 141.296875 158.203125 128.351562 C 158.203125 115.410156 171.320312 104.914062 187.5 104.914062 C 203.679688 104.914062 216.796875 115.410156 216.796875 128.351562 " fill-opacity="1" fill-rule="nonzero"/><g clip-path="url(#35299bec31)"><path fill="#ffffff" d="M 205.078125 40.460938 C 205.078125 50.167969 197.207031 58.039062 187.5 58.039062 C 177.792969 58.039062 169.921875 50.167969 169.921875 40.460938 C 169.921875 30.753906 177.792969 22.882812 187.5 22.882812 C 197.207031 22.882812 205.078125 30.753906 205.078125 40.460938 " fill-opacity="1" fill-rule="nonzero"/></g><g clip-path="url(#416279872b)"><path fill="#ffffff" d="M 222.65625 304.132812 C 222.65625 317.078125 209.539062 327.570312 193.359375 327.570312 C 177.179688 327.570312 164.0625 317.078125 164.0625 304.132812 C 164.0625 291.1875 177.179688 280.695312 193.359375 280.695312 C 209.539062 280.695312 222.65625 291.1875 222.65625 304.132812 " fill-opacity="1" fill-rule="nonzero"/></g><path fill="#ffffff" d="M 193.359375 146.179688 L 181.640625 146.179688 L 181.640625 40.460938 L 193.359375 40.460938 L 193.359375 146.179688 " fill-opacity="1" fill-rule="nonzero"/><g fill="#ffffff" fill-opacity="1"><g transform="translate(55.277345, 371.785464)"><g><path d="M 28.84375 -5.398438 L 24.851562 -8.570312 C 23.855469 -7.390625 22.675781 -6.441406 21.359375 -5.804688 C 20 -5.125 18.59375 -4.808594 17.097656 -4.808594 C 15.285156 -4.808594 13.652344 -5.261719 12.109375 -6.167969 C 10.566406 -7.074219 9.34375 -8.34375 8.480469 -9.933594 C 7.574219 -11.472656 7.121094 -13.152344 7.121094 -14.964844 C 7.121094 -16.78125 7.527344 -18.457031 8.4375 -20 C 9.34375 -21.542969 10.566406 -22.8125 12.109375 -23.71875 C 13.605469 -24.625 15.285156 -25.078125 17.097656 -25.078125 C 18.457031 -25.078125 19.820312 -24.761719 21.089844 -24.21875 C 22.359375 -23.628906 23.492188 -22.8125 24.492188 -21.769531 L 28.253906 -25.171875 C 26.804688 -26.757812 25.125 -27.984375 23.175781 -28.84375 C 21.226562 -29.707031 19.183594 -30.160156 17.097656 -30.160156 C 14.375 -30.160156 11.835938 -29.480469 9.523438 -28.117188 C 7.210938 -26.757812 5.398438 -24.945312 4.082031 -22.585938 C 2.722656 -20.273438 2.039062 -17.734375 2.039062 -14.964844 C 2.039062 -12.246094 2.675781 -9.707031 4.035156 -7.347656 C 5.398438 -4.988281 7.210938 -3.175781 9.570312 -1.8125 C 11.835938 -0.40625 14.375 0.273438 17.097656 0.273438 C 19.367188 0.273438 21.542969 -0.226562 23.628906 -1.222656 C 25.667969 -2.222656 27.394531 -3.582031 28.84375 -5.398438 Z M 28.84375 -5.398438 "/></g></g></g><g fill="#ffffff" fill-opacity="1"><g transform="translate(86.161719, 371.785464)"><g><path d="M 8.84375 -12.382812 L 21.316406 -12.382812 L 21.316406 0 L 26.441406 0 L 26.394531 -29.84375 L 21.316406 -29.84375 L 21.316406 -17.507812 L 8.84375 -17.507812 L 8.84375 -29.84375 L 3.765625 -29.84375 L 3.765625 0 L 8.84375 0 Z M 8.84375 -12.382812 "/></g></g></g><g fill="#ffffff" fill-opacity="1"><g transform="translate(116.365823, 371.785464)"><g><path d="M 21.632812 -4.082031 L 23.445312 0 L 29.027344 0 L 15.875 -29.84375 L 2.039062 0 L 7.664062 0 L 9.570312 -4.082031 Z M 19.367188 -9.207031 L 11.925781 -9.207031 L 15.738281 -17.460938 Z M 19.367188 -9.207031 "/></g></g></g><g fill="#ffffff" fill-opacity="1"><g transform="translate(147.431598, 371.785464)"><g><path d="M 2.222656 -29.84375 L 2.222656 -24.71875 L 11.15625 -24.71875 L 11.15625 0 L 16.234375 0 L 16.234375 -24.71875 L 25.214844 -24.71875 L 25.214844 -29.84375 Z M 2.222656 -29.84375 "/></g></g></g><g fill="#ffffff" fill-opacity="1"><g transform="translate(174.869253, 371.785464)"><g><path d="M 4.21875 -29.84375 L 4.21875 0 L 9.34375 0 L 9.34375 -29.84375 Z M 4.21875 -29.84375 "/></g></g></g><g fill="#ffffff" fill-opacity="1"><g transform="translate(188.429356, 371.785464)"><g><path d="M 7.4375 -29.84375 L 1.90625 -29.84375 L 15.417969 0.679688 L 28.933594 -29.84375 L 23.355469 -29.84375 L 15.417969 -11.925781 Z M 7.4375 -29.84375 "/></g></g></g><g fill="#ffffff" fill-opacity="1"><g transform="translate(219.404437, 371.785464)"><g><path d="M 21.632812 -4.082031 L 23.445312 0 L 29.027344 0 L 15.875 -29.84375 L 2.039062 0 L 7.664062 0 L 9.570312 -4.082031 Z M 19.367188 -9.207031 L 11.925781 -9.207031 L 15.738281 -17.460938 Z M 19.367188 -9.207031 "/></g></g></g><g fill="#ffffff" fill-opacity="1"><g transform="translate(250.470212, 371.785464)"><g><path d="M 2.222656 -29.84375 L 2.222656 -24.71875 L 11.15625 -24.71875 L 11.15625 0 L 16.234375 0 L 16.234375 -24.71875 L 25.214844 -24.71875 L 25.214844 -29.84375 Z M 2.222656 -29.84375 "/></g></g></g><g fill="#ffffff" fill-opacity="1"><g transform="translate(277.907855, 371.785464)"><g><path d="M 3.71875 -29.84375 L 3.71875 0 L 22.585938 0 L 22.585938 -5.078125 L 8.84375 -5.078125 L 8.84375 -12.382812 L 19.183594 -12.382812 L 19.183594 -17.507812 L 8.84375 -17.507812 L 8.84375 -24.71875 L 22.585938 -24.71875 L 22.585938 -29.84375 Z M 3.71875 -29.84375 "/></g></g></g></svg>